<svg xmlns="http://www.w3.org/2000/svg" width="95.294" height="69.94" viewBox="0 0 95.294 69.94">
  <g id="live-streaming" transform="translate(-92.235)">
    <path id="Path_25" data-name="Path 25" d="M215.531,96.166A14.239,14.239,0,1,0,205.449,92a14.224,14.224,0,0,0,10.082,4.161ZM211.94,78.361a5.09,5.09,0,0,1,7.179,0,5.042,5.042,0,0,1,0,7.141,5.092,5.092,0,0,1-7.18,0,5.044,5.044,0,0,1,0-7.141Zm0,0" transform="translate(-75.637 -46.961)" fill="#fff"/>
    <path id="Path_26" data-name="Path 26" d="M299.6,85.7a4.594,4.594,0,0,0,6.5.007,28.387,28.387,0,0,0,0-40.2,4.595,4.595,0,1,0-6.491,6.5,19.2,19.2,0,0,1,0,27.189,4.594,4.594,0,0,0-.007,6.5Zm0,0" transform="translate(-142.915 -30.639)" fill="#fff"/>
    <path id="Path_27" data-name="Path 27" d="M152.833,85.706a4.595,4.595,0,1,0,6.491-6.5,19.2,19.2,0,0,1,0-27.191,4.595,4.595,0,1,0-6.491-6.5,28.388,28.388,0,0,0,0,40.2Zm0,0" transform="translate(-36.251 -30.636)" fill="#fff"/>
    <path id="Path_32" data-name="Path 32" d="M344.791,34.973A38.069,38.069,0,0,1,333.534,62.1a4.595,4.595,0,1,0,6.491,6.5,47.492,47.492,0,0,0,0-67.253,4.595,4.595,0,1,0-6.491,6.5,38.067,38.067,0,0,1,11.257,27.122Zm0,0" transform="translate(-166.452 -0.003)" fill="#fff"/>
    <path id="Path_33" data-name="Path 33" d="M109.436,69.94a4.594,4.594,0,0,0,3.245-7.847,38.3,38.3,0,0,1,0-54.246,4.595,4.595,0,1,0-6.491-6.5,47.493,47.493,0,0,0,0,67.255,4.582,4.582,0,0,0,3.246,1.342Zm0,0" transform="translate(0 0)" fill="#fff"/>
  </g>
</svg>
