<svg xmlns="http://www.w3.org/2000/svg" width="49" height="50" viewBox="0 0 49 50">
  <g id="Group_86" data-name="Group 86" transform="translate(0.17)">
    <ellipse id="Ellipse_10" data-name="Ellipse 10" cx="24.5" cy="25" rx="24.5" ry="25" transform="translate(-0.17)" fill="#ff4310"/>
    <path id="twitter_2_" data-name="twitter (2)" d="M20.894,3a9.856,9.856,0,0,1-2.839,1.384A4.051,4.051,0,0,0,10.947,7.1V8A9.639,9.639,0,0,1,2.809,3.9S-.809,12.042,7.33,15.659A10.526,10.526,0,0,1,1,17.467c8.138,4.521,18.085,0,18.085-10.4a4.069,4.069,0,0,0-.072-.751A6.981,6.981,0,0,0,20.894,3Z" transform="translate(13.92 13.739)" fill="none" stroke="#fff" stroke-linecap="round" stroke-linejoin="round" stroke-width="1.5"/>
  </g>
</svg>
